<?xml version="1.0" encoding="utf-8"?>
<!-- Generator: Adobe Illustrator 27.3.1, SVG Export Plug-In . SVG Version: 6.00 Build 0)  -->
<svg version="1.1" id="Layer_1" xmlns="http://www.w3.org/2000/svg" xmlns:xlink="http://www.w3.org/1999/xlink" x="0px" y="0px"
	 viewBox="0 0 541 144" style="enable-background:new 0 0 541 144;" xml:space="preserve">
<style type="text/css">
	.st0{fill:#4B39F4;}
	.st1{fill:#141516;}
	.st2{fill:#4C39F3;}
	.st3{fill:#141416;}
	.st4{fill:#1DE4A9;}
	.st5{fill:#131416;}
	.st6{fill:#131415;}
	.st7{fill:#4B39F3;}
	.st8{fill:#151618;}
	.st9{fill:#121315;}
	.st10{fill:#4C38F5;}
</style>
<path class="st0" d="M109,24.3c22.4,16.7,23.5,43.4,23.6,45.2c0.7,27.1-18.3,52.5-44.8,59.7c-27.8,7.5-50.1-8.8-52-10.3
	c-1.9-1.4-23.4-18.3-23.6-46.8c-0.1-27.9,20.4-45.2,24-48.3c0,0,0,0,0,0C53.4,9.4,86.4,7.4,109,24.3z"/>
<path class="st1" d="M176.2,40.9c4.7,1.5,7.9,4.4,8.8,5.3c4.3,4.2,5.8,8.9,6.3,11c-3.2,0-6.5,0-9.7,0c-2.8-5.5-8.4-8.7-13.8-8.2
	c-8.1,0.8-11.3,9.5-11.7,10.7c-3.1,8.7,0.9,20.3,8.6,23.1c3.4,1.2,7.5,0.8,10.7-0.8c1.2-0.6,4.1-2,5.5-5.2c0.7-1.5,0.8-2.8,0.8-3.7
	c-3.9,0-7.7,0-11.7,0c0-2.8,0-5.7,0-8.6c7,0,14,0,21.3,0c0,8.9,0,17.8,0,27c-2.3,0-4.6,0-6.9,0c-0.1-2.1-0.1-4.2-0.2-6.3
	c-0.3,0.3-0.7,0.8-1.3,1.3c-1,0.9-3.7,3.4-7.7,4.9c-0.4,0.1-5.2,1.9-10.8,1.1c-8.7-1.3-15.4-8.5-18.3-15.4c-4-9.3-2.8-21.7,5.5-29.7
	C157.9,41.3,167.8,38.3,176.2,40.9z"/>
<path class="st2" d="M454.2,54.9c4.1,0.8,6.6,3.6,7.4,4.6c0.2-0.3,5.6-5.7,12.9-4c6.3,1.5,9,7,9.3,7.7c0.4,9.5,0.8,18.9,1.2,28.4
	c-3,0-6,0-8.9,0c-0.2-9.1-0.4-18.2-0.7-27.3c0,0,0.1-0.4-0.2-0.7c-0.2-0.2-0.5-0.2-0.5-0.2c-4.6,0-8,0-8.5,0c-0.1,0-0.3,0-0.5,0.2
	c-0.2,0.2-0.2,0.6-0.2,0.6c0,9.1,0,18.2,0,27.4c-3.5,0-6.9,0-10.4,0c0-9.2,0.1-18.4,0.1-27.5c0-0.1,0-0.4-0.2-0.7
	c-0.4-0.5-1.1-0.5-1.2-0.5c-4.5,0.1-7.8,0.1-8.5,0.1c-0.1,0-0.5,0-0.7,0.2c-0.2,0.2-0.3,0.5-0.3,0.7c0,0.7-0.3,12.1-0.5,27.8
	c-3.4,0-6.9,0-10.4,0c0-12.3,0-24.6,0-37.3c3.3,0,6.6,0,10,0c0,1.3,0.1,2.6,0.1,4c0.8-0.8,2.6-2.4,5.4-3.2
	C449.3,54.9,451.5,54.3,454.2,54.9z"/>
<path class="st3" d="M299.7,48.4c1.6,2.9,1.8,5.9,1.8,7.9c-3.4,0-6.9,0-10.4,0c0.1-1.2,0.1-4.7-2.3-7.1c-4-4.2-12.5-2.8-15.2,1.5
	c-1,1.6-1.5,4-0.5,5.9c0.4,0.7,1.2,1.9,6,3.4c3.6,1.1,6.4,1.6,7,1.7c2.3,0.4,12.4,2,16.1,8.9c2.9,5.5,0.4,11.7,0.2,12.1
	c-1.3,3.1-3.5,5-4.6,5.9c-8.2,6.8-19.5,4.2-21.4,3.9c-4.4-0.7-8.7-2.8-11.6-6.2c-0.8-1-2.2-3-2.8-5.8c-0.4-2-0.3-3.8-0.1-4.9
	c3.4,0,6.9,0,10.3,0c0.1,1.6,0.6,3.8,2.3,5.5c4.3,4.6,14,3.4,16.8-1.4c0.8-1.3,1.4-3.6,0.4-5.4c-1.3-2.3-4.2-1.9-11.1-3.3
	c-6.6-1.3-10.4-2.1-13.4-5.2c-2.4-2.4-3.2-5.2-3.5-6.2c-1.4-5.1,0.3-9.3,0.8-10.6c2.3-5.1,6.6-7.4,8-8
	C281.3,36.3,295,39.6,299.7,48.4z"/>
<path class="st4" d="M73.9,43c4.3,4.2,8.6,8.4,12.9,12.6c0.1,0.1,0.5,0.5,1.2,0.6c0.6,0.1,1.1-0.2,1.2-0.3c1.4-1.5,2.8-2.9,4.2-4.4
	c2-0.8,4.2-0.5,5.6,0.9c1.8,1.7,1.5,4,1.5,4.3c-1.9,2.4-3.4,4.2-4,5c-0.2,0.2-0.5,0.7-0.5,1.3c0,0.3,0.2,0.6,0.3,0.8
	c0.5,0.7,2.1,2.5,4.4,4.7c1.2,1.5,1.2,3.6,0.1,5.1c-1.1,1.5-3.1,2.1-4.9,1.4c-1.3-1.1-2.5-2.2-3.8-3.3c-0.1-0.1-0.5-0.6-1.2-0.5
	c-0.1,0-0.5,0.1-0.9,0.5c-0.8,0.7-7.4,8.3-16.5,18.7c-0.3,0.3-1.6,1.5-3.6,1.5c-1.4,0-2.4-0.6-2.7-0.9c-6-5.6-12-11.2-17.9-16.8
	c-1.2-1.9-1.2-4.3,0.1-6.1c1.4-1.9,3.9-2.7,6.2-2c4.6,3.9,9.2,7.7,13.7,11.6c0.1,0.1,0.3,0.4,0.7,0.4c0.6,0.1,1-0.4,1-0.4
	c3.9-4.5,7.7-9,11.6-13.5c0,0,0.3-0.3,0.3-0.7c0-0.4-0.3-0.6-0.4-0.7c-4.5-4.8-9-9.5-13.5-14.3c-0.7-1.5-0.3-3.3,0.8-4.5
	C70.8,43,72.4,42.6,73.9,43z"/>
<path class="st2" d="M524.9,64.3c-3.8-7.8-13.3-12.5-21.5-10.5c-4.5,1.1-7.2,3.9-8.1,4.9c-5.5,5.8-6.4,14.7-3.7,21.6
	c0.6,1.5,3.5,9.2,11.7,11.9c6.5,2.2,12.1-0.2,13.5-0.8c1.8-0.8,5.1-2.3,7.2-5.9c1.1-2,1.5-3.9,1.6-5.1h-10c-0.4,0.7-1.9,3-4.8,3.7
	c-3.6,0.9-7.2-1.5-8.8-4.2c-1-1.6-1.2-3.2-1.2-4.2h25.6C526.8,73.2,527.1,68.8,524.9,64.3z M516.4,69.1c-5.3,0.1-10.6,0.2-15.9,0.3
	c0-0.6-0.3-4.1,2.3-6.7c2.6-2.6,7-3.2,10.2-1C516.7,64.2,516.4,68.9,516.4,69.1z"/>
<path class="st5" d="M221.5,54.3c-6.5-2.7-14.3-0.9-18.8,3.7c0,0-5.2,5.2-5,13.7c0,0.5,0,1,0,1.6c0,0.9,0.3,6,1.4,9.2
	c2,5.4,7.6,8.3,9.2,9c1.2,0.6,7.8,3.5,14.6,0.4c5.4-2.5,7.9-7.4,8.4-8.5c0.6-1.2,1-2.3,1.2-3c-1.2,0-2.3,0-3.5-0.1c-0.5,0-1,0-1.4,0
	c-0.5,0-1,0-1.4,0c-0.7,0-0.7,0-1.4,0c-0.7,0-1.1,0-1.3,0c-0.2,0-0.6,0-1,0.1c-0.2,0.6-0.6,1.4-1.3,2.3c0,0-1,1.1-2.3,1.8
	c-2.2,1.1-6.1,1.1-8.9-1.4c-3.2-2.9-2.6-7.1-2.5-7.5c8.2-0.1,16.3-0.1,24.5-0.2c0.1-0.9,0.2-2.2,0.2-3.8c-0.1-2.7-0.5-5.2-1-6.7
	C230.1,61.4,226.9,56.6,221.5,54.3z M210.1,62.4c3.1-2.8,8.1-2.4,11.1,0.2c2.8,2.4,3,5.8,3,6.6c-5.5,0-11,0-16.6,0.1
	C207.5,68.7,207.3,64.9,210.1,62.4z"/>
<path class="st6" d="M342.3,75.6c1.6-7.9-1.1-15.7-6.9-20c-5.8-4.2-12.5-3.2-13.7-3.1c-2.1,0.3-7.2,1-10.8,5.4
	c-2.9,3.6-3.2,7.6-3.3,9.1c-0.1,0.3-1.1,7.8-0.1,12.7c0.2,1.1,0.6,2.9,1.9,5c0.5,0.8,0.9,1.3,1.1,1.5c3,3.8,6.9,5.2,8.6,5.7
	c0.6,0.2,6.2,2,12.5-0.1c2-0.6,3.3-1.4,3.6-1.6c1.1-0.7,3.9-2.5,5.6-6.1c0.4-0.9,0.8-2.2,1-3.8c-2.9-0.1-5.9-0.2-8.8-0.2
	c-1.8,3.6-5.8,5.5-9.7,4.5c-4-1-6.6-4.8-6.2-9H342.3z M320.2,62.7c2.6-2.2,6.7-2.3,9.5-0.1c2.9,2.4,2.6,6.2,2.6,6.6
	c-4.9,0-9.8,0-14.7,0C317.5,68.8,317.4,65.1,320.2,62.7z"/>
<path class="st7" d="M369.1,41.3c13.5,0,26.9,0,40.8,0c0,3,0,5.9,0,9c-5,0-10,0-15.2,0c0,13.6,0,27.2,0,41.2c-3.4,0-6.9,0-10.4,0
	c0-13.6,0-27.2,0-41.2c-5,0-10,0-15.2,0C369.1,47.3,369.1,44.4,369.1,41.3z"/>
<path class="st8" d="M350.1,44.3c3.3,0,6.6,0,10,0c0,3.4,0,6.8,0,10.3c2.1,0,4.3,0,6.5,0c0,2.4,0,4.8,0,7.3c-2.1,0-4.3,0-6.5,0
	c0.1,7.2,0.3,14.4,0.4,21.9c3,0.2,3,0.2,6.1,0.4c0,2.5,0,5.1,0,7.7c-1.7,0-3.5,0.1-5.2,0.1c-0.5,0-1,0-1.5,0c-3.4,0-5.9-0.2-8.4-2.6
	c-1.6-3-1.5-6-1.4-9.4c0-0.5,0-1,0-1.6c0-1.7,0-3.3,0-5c0-1.1,0-2.2,0-3.4c0-2.7,0-5.5,0-8.2c-1.7,0-3.4,0-5.2,0c0-2.4,0-4.8,0-7.3
	c1.7,0,3.4,0,5.2,0C350.1,51.2,350.1,47.8,350.1,44.3z"/>
<path class="st9" d="M240.8,44.3c3.3,0,6.6,0,10,0c0,3.4,0,6.8,0,10.3c2,0,4,0,6.1,0c0,2.4,0,4.8,0,7.3c-2,0-4,0-6.1,0
	c0.1,7.4,0.2,14.8,0.3,22.1c2.1,0.1,4.2,0.1,6.2,0.2c0,2.5,0,5.1,0,7.7c-3.8-0.1-7.6-0.2-11.5-0.3c-0.4,0-2.1-0.3-3.4-1.7
	c-1.6-1.8-1.3-4-1.3-4.3c-0.1-7.9-0.2-15.8-0.3-23.7c-1.7,0-3.4,0-5.2,0c0-2.4,0-4.8,0-7.3c1.7,0,3.4,0,5.2,0
	C240.8,51.2,240.8,47.8,240.8,44.3z"/>
<path class="st2" d="M414.3,54.2c3.3,0,6.6,0,10,0c0,12.3,0,24.6,0,37.3c-3.3,0-6.6,0-10,0C414.3,79.2,414.3,66.9,414.3,54.2z"/>
<path class="st10" d="M414.3,40.9c3.3,0,6.6,0,10,0c0,3.1,0,6.3,0,9.4c-3.3,0-6.6,0-10,0c0-2.4,0-4.7,0-7.1
	C414.3,42.4,414.3,41.7,414.3,40.9z"/>
</svg>

